name C:\Users\u0101727\Documents\MyRepositories\upper-imu-dc\Results\main_tracking\Case_24\SHRUG01_angularVelocities_bodyFrame.mot
datacolumns 4
datarows 94
range 0.51000000 1.44000000
endheader 
time	radius_imu_x	radius_imu_y	radius_imu_z	
          0.51000000	         -0.00745931	          0.33545283	         -0.03013679	
          0.52000000	         -0.03601820	          0.33926479	         -0.06880705	
          0.53000000	         -0.04717059	          0.32530123	         -0.08392472	
          0.54000000	         -0.04455394	          0.26553392	         -0.08173163	
          0.55000000	         -0.03205884	          0.15277708	         -0.06772805	
          0.56000000	         -0.01390221	         -0.00049987	         -0.04660279	
          0.57000000	          0.00588309	         -0.16869228	         -0.02235405	
          0.58000000	          0.02406702	         -0.32454927	          0.00185542	
          0.59000000	          0.03857048	         -0.44739971	          0.02374193	
          0.60000000	          0.04833300	         -0.52568910	          0.04177957	
          0.61000000	          0.05290753	         -0.55591516	          0.05500763	
          0.62000000	          0.05208874	         -0.54033093	          0.06283148	
          0.63000000	          0.04567395	         -0.48465388	          0.06486099	
          0.64000000	          0.03337331	         -0.39594488	          0.06077740	
          0.65000000	          0.01487538	         -0.28116031	          0.05023655	
          0.66000000	         -0.00994157	         -0.14662267	          0.03280907	
          0.67000000	         -0.04073592	          0.00190008	          0.00796397	
          0.68000000	         -0.07654855	          0.15880347	         -0.02485115	
          0.69000000	         -0.11588024	          0.31709662	         -0.06593829	
          0.70000000	         -0.15701294	          0.46380467	         -0.11478105	
          0.71000000	         -0.19855394	          0.57250088	         -0.16923301	
          0.72000000	         -0.24009002	          0.59684623	         -0.22477025	
          0.73000000	         -0.28257309	          0.47118832	         -0.27426488	
          0.74000000	         -0.32764813	          0.12462498	         -0.30871560	
          0.75000000	         -0.37454655	         -0.48412113	         -0.31937639	
          0.76000000	         -0.41263286	         -1.29907695	         -0.30228145	
          0.77000000	         -0.41272521	         -2.08154175	         -0.26447647	
          0.78000000	         -0.29341972	         -1.83590915	         -0.27783932	
          0.79000000	         -0.07631078	         -0.48797287	         -0.33553310	
          0.80000000	          0.07905591	          0.16891409	         -0.30695576	
          0.81000000	          0.11929869	         -0.05028154	         -0.21612878	
          0.82000000	          0.05205940	         -0.55369791	         -0.09052485	
          0.83000000	         -0.05553743	         -0.91257970	          0.01952545	
          0.84000000	         -0.07390407	         -0.58406048	          0.10186074	
          0.85000000	         -0.03477488	         -0.53323044	          0.17612053	
          0.86000000	          0.08415529	         -0.53792438	          0.21601550	
          0.87000000	          0.32994210	          0.68326055	          0.09494771	
          0.88000000	          0.55727212	          1.93579233	          0.00890221	
          0.89000000	          0.62464135	          1.92309845	         -0.02096053	
          0.90000000	          0.56637973	          1.27603251	         -0.03680198	
          0.91000000	          0.42951499	          0.59567761	         -0.07160028	
          0.92000000	          0.23148305	         -0.01822372	         -0.11718425	
          0.93000000	         -0.01742069	         -0.58287858	         -0.15726655	
          0.94000000	         -0.30018754	         -1.16797833	         -0.17418175	
          0.95000000	         -0.57770162	         -1.77343622	         -0.16010377	
          0.96000000	         -0.77379617	         -2.26940892	         -0.12383721	
          0.97000000	         -0.76632236	         -1.95561026	         -0.13061368	
          0.98000000	         -0.61400955	         -0.61508291	         -0.19851880	
          0.99000000	         -0.36342283	          1.33682121	         -0.43465100	
          1.00000000	         -0.09541267	          2.62572503	         -0.56651230	
          1.01000000	         -0.03394797	          2.53821966	         -0.59470237	
          1.02000000	         -0.11618793	          1.65674152	         -0.56075974	
          1.03000000	         -0.28734205	          0.51802566	         -0.49502313	
          1.04000000	         -0.50558509	         -0.69582206	         -0.40040333	
          1.05000000	         -0.71686727	         -1.78827383	         -0.28055686	
          1.06000000	         -0.79809451	         -2.15979292	         -0.17882971	
          1.07000000	         -0.70755929	         -1.56340300	         -0.13885442	
          1.08000000	         -0.55790109	         -0.77831345	         -0.10360093	
          1.09000000	         -0.41200457	         -0.01254524	         -0.05807490	
          1.10000000	         -0.25590587	          0.77563895	         -0.03297057	
          1.11000000	         -0.06347530	          1.63522696	          0.00416316	
          1.12000000	          0.12157553	          2.60471596	          0.03369049	
          1.13000000	          0.19456069	          2.92771044	          0.07933345	
          1.14000000	          0.11051053	          2.46293789	          0.14869632	
          1.15000000	         -0.04738071	          1.71206591	          0.20297792	
          1.16000000	         -0.19837626	          1.00091425	          0.22071210	
          1.17000000	         -0.31590989	          0.44278062	          0.20210439	
          1.18000000	         -0.39648662	          0.06098047	          0.15524589	
          1.19000000	         -0.44860950	         -0.16210412	          0.09126059	
          1.20000000	         -0.48359714	         -0.25584717	          0.02078981	
          1.21000000	         -0.51107700	         -0.25017714	         -0.04769431	
          1.22000000	         -0.53694444	         -0.17219761	         -0.10863559	
          1.23000000	         -0.56308051	         -0.04601563	         -0.15940498	
          1.24000000	         -0.58805805	          0.10687792	         -0.19978799	
          1.25000000	         -0.60827717	          0.26715244	         -0.23115599	
          1.26000000	         -0.61910771	          0.41690379	         -0.25555264	
          1.27000000	         -0.61582345	          0.53858205	         -0.27489299	
          1.28000000	         -0.59436174	          0.61397098	         -0.29041144	
          1.29000000	         -0.55209605	          0.62399743	         -0.30246179	
          1.30000000	         -0.48878468	          0.54998291	         -0.31074996	
          1.31000000	         -0.40749181	          0.37633351	         -0.31504581	
          1.32000000	         -0.31516570	          0.09327831	         -0.31618136	
          1.33000000	         -0.22092588	         -0.29578987	         -0.31760163	
          1.34000000	         -0.13446731	         -0.76945041	         -0.32521335	
          1.35000000	         -0.04210932	         -1.19125276	         -0.35002590	
          1.36000000	          0.08929574	         -1.33334526	         -0.37315354	
          1.37000000	          0.23534006	         -1.26379742	         -0.40619704	
          1.38000000	          0.37102649	         -1.11316969	         -0.42454094	
          1.39000000	          0.48173194	         -0.93727603	         -0.43947590	
          1.40000000	          0.54141552	         -0.81582527	         -0.45828525	
          1.41000000	          0.57540043	         -0.73762695	         -0.49311890	
          1.42000000	          0.57852418	         -0.67187563	         -0.53046542	
          1.43000000	          0.56449380	         -0.62877199	         -0.56373642	
          1.44000000	          0.53532118	         -0.59952105	         -0.58251974	
